<?xml version="1.0" standalone="no"?>
<!DOCTYPE svg PUBLIC "-//W3C//DTD SVG 20010904//EN"
 "http://www.w3.org/TR/2001/REC-SVG-20010904/DTD/svg10.dtd">
<svg version="1.0" xmlns="http://www.w3.org/2000/svg"
 width="16.000000pt" height="16.000000pt" viewBox="0 0 16.000000 16.000000"
 preserveAspectRatio="xMidYMid meet">

<g transform="translate(0.000000,16.000000) scale(0.100000,-0.100000)"
fill="#000000" stroke="none">
<path d="M50 120 c0 -5 7 -10 15 -10 8 0 15 -4 15 -9 0 -5 -7 -14 -15 -21 -8
-7 -15 -21 -15 -31 0 -14 7 -19 30 -19 20 0 30 5 30 15 0 8 -7 15 -16 15 -14
0 -14 2 0 22 24 34 20 48 -14 48 -16 0 -30 -4 -30 -10z"/>
</g>
</svg>
